# xmcd CD database file
#
# Track frame offsets:
#	150
#	16960
#	40577
#	57346
#
# Disc length: 1075 seconds
#
# Revision: 0
# Processed by: cddbd v1.5.1PL0 Copyright (c) Steve Scherf et al.
# Submitted via: CDex 1.51
#
DISCID=27043104
DTITLE=鈴木達央 - Just a survivor
DYEAR=2005
DGENRE=Vocal
TTITLE0=Just a survivor
TTITLE1=yesterdays
TTITLE2=Just a survivor(inst)
TTITLE3=yesterdays(inst)
EXTD=YEAR: 2005
EXTT0=
EXTT1=
EXTT2=
EXTT3=
PLAYORDER=
